<?xml version="1.0" standalone="no"?>
<!DOCTYPE svg PUBLIC "-//W3C//DTD SVG 20010904//EN"
 "http://www.w3.org/TR/2001/REC-SVG-20010904/DTD/svg10.dtd">
<svg version="1.0" xmlns="http://www.w3.org/2000/svg"
 width="128.000000pt" height="128.000000pt" viewBox="0 0 128.000000 128.000000"
 preserveAspectRatio="xMidYMid meet">
<metadata>
Created by potrace 1.14, written by Peter Selinger 2001-2017
</metadata>
<g transform="translate(0.000000,128.000000) scale(0.100000,-0.100000)"
fill="#000000" stroke="none">
<path d="M573 1086 c-108 -35 -203 -122 -256 -234 -30 -63 -32 -73 -32 -182 0
-109 2 -119 32 -183 43 -89 119 -169 202 -210 61 -30 72 -32 171 -32 99 0 110
2 171 32 83 41 159 121 202 210 30 64 32 74 32 183 0 109 -2 119 -32 183 -42
89 -119 169 -201 209 -56 28 -77 33 -156 35 -57 2 -107 -2 -133 -11z"/>
</g>
</svg>
